<?xml version="1.0" encoding="utf-8"?>
<!-- Generator: Adobe Illustrator 25.3.1, SVG Export Plug-In . SVG Version: 6.00 Build 0)  -->
<svg version="1.1" xmlns="http://www.w3.org/2000/svg" xmlns:xlink="http://www.w3.org/1999/xlink" x="0px" y="0px"
	 viewBox="0 0 320 150" style="enable-background:new 0 0 320 150;" xml:space="preserve">
<style type="text/css">
	.st0{opacity:0.5;}
	.st1{fill:#FFFFFF;stroke:#000000;stroke-miterlimit:10;}
	.st2{fill:#B2B2D9;stroke:#000000;stroke-miterlimit:10;}
	.st3{fill:#87D1CF;stroke:#000000;stroke-miterlimit:10;}
	.st4{fill:#BBDDAB;stroke:#000000;stroke-miterlimit:10;}
	.st5{fill:#F7F6C8;stroke:#000000;stroke-miterlimit:10;}
	.st6{fill:#FED6A6;stroke:#000000;stroke-miterlimit:10;}
	.st7{fill:#F8ACAD;stroke:#000000;stroke-miterlimit:10;}
	.st8{fill:#AE85BC;stroke:#000000;stroke-miterlimit:10;}
	.st9{fill:none;stroke:#000000;stroke-width:0.64;stroke-miterlimit:3.2;}
	.st10{fill:none;stroke:#000000;stroke-width:1;stroke-miterlimit:3.2;}
	.st11{fill:none;stroke:#000000;stroke-width:1.5;stroke-miterlimit:3.2;}
	.st12{fill:#0F5755;}
	.st13{fill:none;stroke:#0F5755;stroke-miterlimit:10;}
	.st14{fill:#F37D20;stroke:#FFFFFF;stroke-width:13;stroke-miterlimit:10;}
	.st15{fill:#069DA5;}
	.st16{fill:#EE352A;}
	.st17{fill:#F29821;}
	.st18{fill:#002F2E;}
	.st19{fill:#F37D20;stroke:#000000;stroke-miterlimit:10;}
	.st20{fill:#F37D20;}
	.st21{fill:#0D3F3B;}
	.st22{fill:#14695E;}
	.st23{fill:none;stroke:#000000;stroke-miterlimit:10;}
	.st24{opacity:0.5;fill:none;stroke:#ED1C24;stroke-miterlimit:10;}
	.st25{fill:none;}
	.st26{fill:#D61F26;}
	.st27{fill:#F37D20;stroke:#FFFFFF;stroke-width:14;stroke-miterlimit:10;}
	.st28{fill:#0D3F3B;stroke:#FFFFFF;stroke-width:14;stroke-miterlimit:10;}
	.st29{fill:#D61F26;stroke:#FFFFFF;stroke-width:14;stroke-miterlimit:10;}
	.st30{fill:#F47C20;}
	.st31{fill:#B82025;}
	.st32{fill:#EE342A;}
	.st33{fill:#F29822;}
	.st34{fill:#001715;}
	.st35{fill:#F3E0D1;}
	.st36{fill:#C72127;}
	.st37{fill:#009CA5;}
	.st38{fill:#E87D2A;}
	.st39{fill:#F2E9E1;}
	.st40{fill:none;stroke:#B82025;stroke-width:20;stroke-miterlimit:10;}
	.st41{fill:#B82025;stroke:#FFFFFF;stroke-width:10;stroke-miterlimit:10;}
	.st42{opacity:0.6;fill:#F3E0D1;}
	.st43{fill:none;stroke:#F3E0D1;stroke-miterlimit:10;}
	.st44{fill:#F37D20;stroke:#FFFFFF;stroke-width:10;stroke-miterlimit:10;}
	.st45{fill:#FFFFFF;}
	.st46{fill:#F37D20;stroke:#FFFFFF;stroke-width:8;stroke-miterlimit:10;}
	.st47{fill:#0D3F3B;stroke:#FFFFFF;stroke-width:8;stroke-miterlimit:10;}
	.st48{fill:#D61F26;stroke:#FFFFFF;stroke-width:8;stroke-miterlimit:10;}
	.st49{fill:none;stroke:#FFFFFF;stroke-width:8;stroke-miterlimit:10;}
	.st50{fill:none;stroke:#FFFFFF;stroke-width:10;stroke-miterlimit:10;}
	.st51{fill:none;stroke:#FFFFFF;stroke-width:5;stroke-miterlimit:10;}
	.st52{fill:none;stroke:#FFFFFF;stroke-width:13;stroke-miterlimit:10;}
	.st53{fill:#EE304D;}
	.st54{fill:#24403F;}
	.st55{fill:#FFF7EF;}
	.st56{fill:none;stroke:#ED5182;stroke-miterlimit:10;}
	.st57{opacity:0.2;}
	.st58{fill:#9B9B9B;}
	.st59{fill:#575757;}
</style>
<g id="logo_sketches">
</g>
<g id="Texext">
	<g>
		<g>
			<path class="st15" d="M90.47,60.21l-1.66-10.58c-3.23-20.73-21-26.23-31.3-4.67L38.79,83.07c2-0.74,4.13-1.13,6.34-1.13
				c0.8,0,1.61,0.06,2.44,0.17c8.98,1.21,15.76,8.96,15.76,18.03c0,0.22-0.01,0.44-0.02,0.66c0.56-0.17,0.99-0.29,1.12-0.34
				l0.18-0.05c10.45-2.54,21.39-3,32.02-1.38L90.47,60.21z"/>
			<path class="st16" d="M22.95,115.92c6.33,1.96,14.49,2.81,21.11,2.86c0.19,0,0.37,0,0.56,0c6.76,0,13.47-1.01,19.95-3
				c10.4-2.51,23.12-2.95,34.57-0.07l-1.62-10.36c-11.6-2.15-23.66-1.83-35.13,0.96l-0.26,0.07c-5.68,1.76-11.58,2.66-17.52,2.66
				c-0.16,0-0.32,0-0.49,0c-5.68-0.05-11.32-0.92-16.76-2.58"/>
			<path class="st17" d="M46.95,103.01c3.24,0,6.47-0.28,9.67-0.81c0.13-0.71,0.2-1.44,0.2-2.19c0-6.04-4.4-11.03-10.12-11.81
				c-0.51-0.07-1.04-0.11-1.57-0.11c-3.8,0-7.18,1.86-9.32,4.73c-0.92,1.24-1.61,2.67-2,4.22c-0.24,0.95-0.37,1.95-0.37,2.98
				c0,0.49,0.03,0.96,0.09,1.44c4.24,1,8.57,1.52,12.93,1.56C46.63,103.01,46.79,103.01,46.95,103.01"/>
		</g>
		<g>
			<g>
				<g>
					<path class="st18" d="M115.15,81.36L129.86,51h7.6l4.86,30.37h-6.16l-0.81-6.32h-10.79l-2.7,6.32H115.15z M126.33,70.8h8.48
						l-1.73-13.5l-0.16-2.34l-0.85,2.34L126.33,70.8z"/>
					<path class="st18" d="M156.27,91.2l1.32-9.86l0.83-4.96c-0.46,0.96-1.03,1.85-1.72,2.65c-0.68,0.81-1.46,1.45-2.33,1.93
						c-0.87,0.48-1.82,0.72-2.87,0.72c-2.24,0-3.88-0.78-4.93-2.34c-1.05-1.56-1.58-3.62-1.58-6.18c0-2.06,0.33-3.98,0.98-5.76
						c0.65-1.78,1.58-3.35,2.77-4.7c1.2-1.35,2.64-2.4,4.31-3.15c1.67-0.75,3.53-1.13,5.56-1.13c0.76,0,1.59,0.08,2.5,0.23
						c0.91,0.16,1.69,0.34,2.34,0.56l3.23-0.83l-4.37,32.81H156.27z M153.48,77.38c0.52,0,1.03-0.22,1.56-0.65
						c0.52-0.43,1.02-0.99,1.5-1.68c0.48-0.68,0.92-1.4,1.32-2.15c0.4-0.75,0.73-1.45,0.99-2.08l1.14-8.44
						c-0.28-0.07-0.58-0.12-0.89-0.15s-0.64-0.05-1-0.05c-1.12,0-2.11,0.32-2.95,0.97s-1.53,1.48-2.08,2.52
						c-0.55,1.04-0.96,2.17-1.24,3.42c-0.28,1.24-0.42,2.46-0.42,3.67c0,0.95,0.07,1.77,0.21,2.47s0.36,1.23,0.66,1.6
						C152.58,77.19,152.98,77.38,153.48,77.38z"/>
					<path class="st18" d="M175.86,81.77c-1.67,0-3-0.43-3.98-1.28c-0.99-0.85-1.48-2.22-1.48-4.11c0-0.62,0.05-1.46,0.16-2.51
						s0.26-2.3,0.47-3.75c0.16-1.19,0.33-2.43,0.51-3.72c0.18-1.29,0.36-2.58,0.54-3.88c0.18-1.3,0.36-2.57,0.52-3.8h6.12
						c-0.07,0.57-0.15,1.22-0.25,1.96c-0.1,0.74-0.21,1.52-0.31,2.36c-0.11,0.83-0.22,1.67-0.34,2.52s-0.23,1.67-0.33,2.46
						c-0.11,0.79-0.2,1.51-0.29,2.17c-0.16,1.23-0.28,2.26-0.36,3.07c-0.07,0.81-0.11,1.42-0.11,1.81c0,0.73,0.16,1.27,0.47,1.61
						s0.74,0.52,1.28,0.52c0.53,0,1.09-0.18,1.68-0.55c0.59-0.37,1.17-0.86,1.75-1.47c0.58-0.62,1.1-1.31,1.58-2.08l1.97-14.37h6.14
						l-3.07,22.64h-5.53l0.22-3.98c-0.84,1.25-1.9,2.29-3.19,3.13C178.72,81.35,177.34,81.77,175.86,81.77z"/>
					<path class="st18" d="M201.05,81.69c-2.25,0-3.9-0.78-4.95-2.34c-1.05-1.56-1.58-3.62-1.58-6.18c0-2.06,0.32-3.98,0.96-5.76
						c0.64-1.78,1.57-3.35,2.76-4.7c1.2-1.35,2.63-2.4,4.29-3.15c1.66-0.75,3.51-1.13,5.56-1.13c0.76,0,1.58,0.08,2.45,0.24
						s1.66,0.36,2.37,0.59l3.23-0.83l-3.17,22.93h-5.49l0.24-4.57c-0.71,1.37-1.63,2.53-2.76,3.48
						C203.83,81.21,202.52,81.69,201.05,81.69z M203,77.44c0.56,0,1.1-0.23,1.63-0.69c0.53-0.46,1.03-1.04,1.51-1.75
						c0.48-0.7,0.92-1.45,1.3-2.23c0.39-0.78,0.7-1.49,0.95-2.14l1.16-8.21c-0.54-0.16-1.2-0.24-1.97-0.24
						c-1.44,0-2.65,0.52-3.64,1.56c-0.99,1.06-1.74,2.4-2.25,4.01c-0.51,1.62-0.76,3.28-0.76,4.99c0,0.92,0.07,1.74,0.2,2.45
						c0.14,0.71,0.36,1.26,0.66,1.66C202.09,77.25,202.5,77.44,203,77.44z"/>
					<path class="st18" d="M218.91,81.36L222,58.72h5.92l-0.34,4.51c0.33-0.8,0.79-1.56,1.38-2.3c0.6-0.73,1.3-1.33,2.11-1.8
						c0.81-0.47,1.69-0.7,2.64-0.7c0.71,0,1.15,0.08,1.34,0.24l-1.16,6.3c-0.12-0.15-0.37-0.26-0.75-0.34
						c-0.38-0.07-0.77-0.11-1.18-0.11c-0.66,0-1.28,0.12-1.86,0.36c-0.58,0.24-1.12,0.57-1.62,1s-0.98,0.92-1.44,1.49l-1.99,13.98
						H218.91z"/>
					<path class="st18" d="M236.47,81.36l3.09-22.64h6.18l-3.13,22.64H236.47z M243.51,54.94c-0.79,0-1.49-0.29-2.11-0.88
						s-0.93-1.28-0.93-2.08c0-1.02,0.36-1.89,1.09-2.62s1.63-1.1,2.71-1.1c0.91,0,1.67,0.28,2.28,0.84
						c0.61,0.56,0.92,1.25,0.92,2.06c0,1.07-0.36,1.97-1.09,2.69C245.64,54.58,244.69,54.94,243.51,54.94z"/>
					<path class="st18" d="M255.3,81.69c-2.25,0-3.9-0.78-4.95-2.34c-1.05-1.56-1.58-3.62-1.58-6.18c0-2.06,0.32-3.98,0.96-5.76
						c0.64-1.78,1.57-3.35,2.76-4.7c1.2-1.35,2.63-2.4,4.29-3.15c1.66-0.75,3.51-1.13,5.56-1.13c0.76,0,1.58,0.08,2.45,0.24
						s1.66,0.36,2.37,0.59l3.23-0.83l-3.17,22.93h-5.49l0.24-4.57c-0.71,1.37-1.63,2.53-2.76,3.48
						C258.08,81.21,256.77,81.69,255.3,81.69z M257.25,77.44c0.56,0,1.1-0.23,1.63-0.69c0.53-0.46,1.03-1.04,1.51-1.75
						c0.48-0.7,0.92-1.45,1.3-2.23c0.39-0.78,0.7-1.49,0.95-2.14l1.16-8.21c-0.54-0.16-1.2-0.24-1.97-0.24
						c-1.44,0-2.65,0.52-3.64,1.56c-0.99,1.06-1.74,2.4-2.25,4.01c-0.51,1.62-0.76,3.28-0.76,4.99c0,0.92,0.07,1.74,0.2,2.45
						c0.14,0.71,0.36,1.26,0.66,1.66C256.34,77.25,256.75,77.44,257.25,77.44z"/>
					<path class="st18" d="M273.14,81.36l3.09-22.64h5.87l-0.33,4.21c1-1.38,2.17-2.48,3.52-3.28s2.76-1.21,4.27-1.21
						c1.69,0,2.98,0.46,3.85,1.37s1.31,2.43,1.31,4.54c0,0.3-0.04,0.81-0.11,1.53s-0.18,1.55-0.3,2.49
						c-0.13,0.93-0.26,1.88-0.4,2.83c-0.04,0.28-0.1,0.74-0.18,1.36c-0.08,0.62-0.18,1.34-0.29,2.14c-0.12,0.81-0.23,1.63-0.36,2.48
						s-0.24,1.64-0.35,2.37c-0.11,0.73-0.2,1.33-0.26,1.81h-6.16c0.15-1.03,0.3-2.09,0.46-3.18c0.16-1.09,0.31-2.22,0.48-3.38
						c0.16-1.17,0.33-2.36,0.49-3.58c0.19-1.48,0.34-2.7,0.45-3.67s0.17-1.72,0.18-2.25c0.01-0.77-0.12-1.31-0.41-1.6
						c-0.28-0.3-0.74-0.45-1.36-0.45c-0.41,0-0.86,0.11-1.35,0.34c-0.5,0.22-0.99,0.53-1.47,0.91c-0.49,0.39-0.95,0.83-1.39,1.32
						c-0.44,0.49-0.82,1.02-1.15,1.58l-1.95,13.96H273.14z"/>
				</g>
			</g>
			<path class="st15" d="M176.54,104.13l-3.97-13.33h2.47l2.16,8.1l0.66,3.75h-0.36l0.69-3.75l2.54-8.1h1.91l2.62,8.1l0.84,3.75
				h-0.38l0.62-3.75l2.01-8.1h2.43L187,104.13h-2.4l-2.56-7.96l-0.74-4.39l0.74,0.02l-0.73,4.37l-2.6,7.96H176.54z M193.39,104V90.8
				h8.54v1.84h-6.17v3.68h4.6v1.82h-4.6v3.96h6.85v1.9H193.39z M205.47,104V90.78l1.14,0.02c0.48,0,0.99-0.02,1.51-0.06
				c0.52-0.04,1.14-0.06,1.86-0.06c1.13,0,2.06,0.13,2.78,0.4c0.73,0.27,1.26,0.64,1.61,1.12c0.35,0.48,0.53,1.05,0.53,1.71
				c0,0.44-0.08,0.86-0.23,1.28c-0.15,0.42-0.39,0.78-0.72,1.09c-0.33,0.31-0.75,0.53-1.26,0.65c0.59,0.04,1.13,0.2,1.6,0.49
				c0.48,0.28,0.85,0.65,1.13,1.1c0.28,0.45,0.41,0.95,0.41,1.5c0,0.8-0.18,1.5-0.53,2.12c-0.35,0.62-0.96,1.1-1.82,1.46
				c-0.86,0.35-2.05,0.53-3.57,0.53c-0.53,0-1.11-0.02-1.74-0.05c-0.63-0.03-1.13-0.06-1.51-0.08H205.47z M207.82,96.36
				c0.16,0.02,0.35,0.03,0.57,0.04c0.21,0.01,0.44,0.01,0.66,0.01c0.23,0,0.45,0,0.66-0.01c0.21,0,0.4-0.01,0.56-0.01
				c0.69,0,1.24-0.18,1.65-0.54c0.41-0.36,0.62-0.92,0.62-1.69c0-0.63-0.25-1.08-0.76-1.37c-0.5-0.29-1.23-0.43-2.17-0.43
				c-0.14,0-0.33,0.01-0.58,0.02c-0.25,0.01-0.5,0.02-0.73,0.04c-0.23,0.02-0.4,0.04-0.49,0.07V96.36z M207.82,102.22
				c0.11,0.06,0.3,0.11,0.57,0.13c0.27,0.03,0.56,0.05,0.88,0.06c0.32,0.01,0.6,0.02,0.84,0.02c1.04,0,1.83-0.16,2.39-0.49
				c0.56-0.33,0.84-0.91,0.84-1.76c0-0.74-0.25-1.27-0.76-1.61c-0.51-0.34-1.31-0.51-2.41-0.51c-0.27,0-0.55,0-0.85-0.01
				c-0.3,0-0.58,0-0.85,0.01c-0.27,0.01-0.48,0.02-0.65,0.04V102.22z M217.24,103.99L217.24,103.99z M226.68,104.14
				c-0.65,0-1.26-0.04-1.82-0.13c-0.57-0.09-1.06-0.19-1.48-0.31c-0.42-0.12-0.71-0.23-0.89-0.33l0.49-1.94
				c0.25,0.12,0.56,0.25,0.93,0.37c0.37,0.13,0.78,0.23,1.23,0.32c0.45,0.09,0.9,0.13,1.37,0.13c0.88,0,1.54-0.13,2-0.38
				c0.45-0.26,0.68-0.65,0.68-1.19c0-0.37-0.11-0.68-0.34-0.94c-0.23-0.26-0.57-0.51-1.04-0.74c-0.46-0.23-1.05-0.51-1.75-0.81
				c-0.61-0.27-1.2-0.6-1.75-0.97c-0.55-0.37-1-0.81-1.35-1.32c-0.35-0.5-0.52-1.09-0.52-1.76c0-0.63,0.14-1.17,0.41-1.61
				c0.28-0.44,0.65-0.8,1.11-1.07c0.47-0.27,0.99-0.47,1.58-0.6c0.59-0.13,1.19-0.19,1.81-0.19c0.88,0,1.62,0.08,2.22,0.25
				c0.6,0.17,1.03,0.32,1.28,0.46l-0.45,1.88c-0.21-0.12-0.45-0.23-0.73-0.35c-0.27-0.12-0.6-0.21-0.97-0.29
				c-0.37-0.08-0.82-0.12-1.35-0.12c-0.48,0-0.91,0.05-1.31,0.16c-0.4,0.11-0.71,0.27-0.95,0.48c-0.24,0.21-0.36,0.47-0.36,0.79
				c0,0.37,0.1,0.68,0.29,0.93c0.19,0.25,0.49,0.49,0.9,0.73c0.41,0.23,0.95,0.5,1.61,0.82c0.46,0.21,0.93,0.44,1.41,0.69
				c0.48,0.25,0.91,0.53,1.31,0.85c0.4,0.32,0.72,0.68,0.96,1.1c0.24,0.42,0.36,0.9,0.36,1.45c0,0.8-0.21,1.47-0.63,2.01
				c-0.42,0.54-1,0.95-1.74,1.23C228.5,104,227.64,104.14,226.68,104.14z M237.99,104V92.66h-4.41V90.8h11.3v1.86h-4.45V104H237.99z
				 M253.22,104.14c-1.38,0-2.48-0.23-3.31-0.7c-0.83-0.47-1.43-1.13-1.8-1.98c-0.37-0.85-0.56-1.86-0.56-3.02V90.8h2.41v7.29
				c0,1.01,0.11,1.82,0.33,2.43c0.22,0.6,0.58,1.04,1.06,1.3c0.49,0.27,1.13,0.4,1.92,0.4c1.1,0,1.88-0.32,2.37-0.96
				c0.48-0.64,0.72-1.7,0.72-3.17V90.8h2.39v7.68c0,1.21-0.2,2.24-0.6,3.08c-0.4,0.84-1.01,1.48-1.83,1.92
				C255.5,103.92,254.46,104.14,253.22,104.14z M262.47,104V90.8c0.13,0,0.26,0,0.39,0c0.13,0,0.26,0,0.39,0c0.13,0,0.26,0,0.39,0
				c0.31,0,0.65-0.01,1.02-0.04c0.37-0.02,0.77-0.05,1.19-0.07c0.42-0.02,0.85-0.04,1.28-0.04c2.37,0,4.12,0.56,5.25,1.68
				c1.13,1.12,1.7,2.68,1.7,4.7c0,1.55-0.3,2.85-0.9,3.92c-0.6,1.07-1.44,1.87-2.51,2.41c-1.08,0.54-2.33,0.8-3.76,0.78
				c-0.6-0.01-1.2-0.04-1.8-0.08c-0.6-0.04-1.15-0.06-1.66-0.06c-0.16,0-0.32,0-0.48,0C262.82,104,262.65,104,262.47,104z
				 M264.9,102.16c0.32,0.07,0.7,0.11,1.14,0.13c0.44,0.02,0.84,0.03,1.19,0.03c0.84-0.01,1.59-0.19,2.24-0.54
				c0.65-0.34,1.16-0.88,1.53-1.61c0.37-0.73,0.56-1.68,0.56-2.86c0-1.81-0.4-3.08-1.21-3.8c-0.81-0.72-2.02-1.08-3.65-1.08
				c-0.39,0-0.74,0.02-1.06,0.05c-0.32,0.03-0.56,0.06-0.74,0.08V102.16z M277.37,104V90.8h2.44V104H277.37z M289.61,104.14
				c-1.34,0.03-2.49-0.23-3.45-0.77c-0.96-0.54-1.7-1.32-2.21-2.34c-0.51-1.02-0.77-2.24-0.77-3.66c0-1.36,0.27-2.53,0.8-3.53
				c0.53-1,1.29-1.77,2.28-2.33c0.99-0.56,2.17-0.84,3.55-0.86c1.33-0.02,2.48,0.23,3.42,0.77c0.95,0.53,1.67,1.3,2.16,2.29
				c0.49,1,0.72,2.18,0.69,3.56c-0.03,1.38-0.3,2.58-0.83,3.61c-0.53,1.02-1.27,1.82-2.22,2.38
				C292.06,103.83,290.92,104.12,289.61,104.14z M289.69,102.3c1.25,0,2.22-0.45,2.92-1.35c0.7-0.9,1.05-2.12,1.05-3.65
				c0-0.99-0.15-1.84-0.46-2.56c-0.31-0.72-0.76-1.28-1.35-1.67c-0.59-0.39-1.3-0.59-2.13-0.59c-0.87,0-1.61,0.2-2.22,0.6
				c-0.62,0.4-1.09,0.97-1.41,1.71c-0.33,0.74-0.49,1.62-0.49,2.63c0,1,0.16,1.87,0.49,2.6c0.33,0.73,0.8,1.29,1.41,1.69
				C288.09,102.1,288.83,102.3,289.69,102.3z"/>
		</g>
	</g>
</g>
<g id="Layer_6">
</g>
<g id="logo_vector_roughs">
</g>
<g id="guides">
</g>
<g id="Layer_4">
</g>
</svg>
