<?xml version="1.0" encoding="UTF-8" standalone="no"?>
<!DOCTYPE svg PUBLIC "-//W3C//DTD SVG 1.1//EN" "http://www.w3.org/Graphics/SVG/1.1/DTD/svg11.dtd">
<svg width="100%" height="100%" viewBox="0 0 80 90" version="1.1" xmlns="http://www.w3.org/2000/svg" xmlns:xlink="http://www.w3.org/1999/xlink" xml:space="preserve" xmlns:serif="http://www.serif.com/" style="fill-rule:evenodd;clip-rule:evenodd;stroke-linejoin:round;stroke-miterlimit:2;">
    <g id="Texext" transform="matrix(1,0,0,1,-5,-5)">
        <clipPath id="_clip1">
            <rect x="2.95" y="6.209" width="76.303" height="87.571"/>
        </clipPath>
        <g clip-path="url(#_clip1)">
            <g transform="matrix(1,0,0,1,2.05,0.00526348)">
                <g>
                    <path d="M70.47,35.21L68.81,24.63C65.58,3.9 47.81,-1.6 37.51,19.96L18.79,58.07C20.79,57.33 22.92,56.94 25.13,56.94C25.93,56.94 26.74,57 27.57,57.11C36.55,58.32 43.33,66.07 43.33,75.14C43.33,75.36 43.32,75.58 43.31,75.8C43.87,75.63 44.3,75.51 44.43,75.46L44.61,75.41C55.06,72.87 66,72.41 76.63,74.03L70.47,35.21Z" style="fill:rgb(6,157,165);fill-rule:nonzero;"/>
                    <path d="M2.95,90.92C9.28,92.88 17.44,93.73 24.06,93.78L24.62,93.78C31.38,93.78 38.09,92.77 44.57,90.78C54.97,88.27 67.69,87.83 79.14,90.71L77.52,80.35C65.92,78.2 53.86,78.52 42.39,81.31L42.13,81.38C36.45,83.14 30.55,84.04 24.61,84.04L24.12,84.04C18.44,83.99 12.8,83.12 7.36,81.46" style="fill:rgb(238,53,42);fill-rule:nonzero;"/>
                    <path d="M26.95,78.01C30.19,78.01 33.42,77.73 36.62,77.2C36.75,76.49 36.82,75.76 36.82,75.01C36.82,68.97 32.42,63.98 26.7,63.2C26.19,63.13 25.66,63.09 25.13,63.09C21.33,63.09 17.95,64.95 15.81,67.82C14.89,69.06 14.2,70.49 13.81,72.04C13.57,72.99 13.44,73.99 13.44,75.02C13.44,75.51 13.47,75.98 13.53,76.46C17.77,77.46 22.1,77.98 26.46,78.02C26.63,78.01 26.79,78.01 26.95,78.01" style="fill:rgb(242,152,33);fill-rule:nonzero;"/>
                </g>
            </g>
        </g>
    </g>
</svg>
